<mxfile host="app.diagrams.net" modified="2022-10-19T02:09:41.788Z" agent="5.0 (Macintosh; Intel Mac OS X 10_15_7) AppleWebKit/537.36 (KHTML, like Gecko) Chrome/105.0.0.0 Safari/537.36" etag="H4kL6HbQkgZou78GXolN" version="20.4.1" type="github">
  <diagram name="Page-1" id="c7488fd3-1785-93aa-aadb-54a6760d102a">
    <mxGraphModel dx="1289" dy="781" grid="1" gridSize="10" guides="1" tooltips="1" connect="1" arrows="1" fold="1" page="1" pageScale="1" pageWidth="1100" pageHeight="850" background="none" math="0" shadow="0">
      <root>
        <mxCell id="0" />
        <mxCell id="1" parent="0" />
        <mxCell id="2b4e8129b02d487f-1" value="用户体验广告交互流程图" style="swimlane;html=1;childLayout=stackLayout;horizontal=1;startSize=20;horizontalStack=0;rounded=0;shadow=0;labelBackgroundColor=none;strokeWidth=1;fontFamily=Verdana;fontSize=8;align=center;" parent="1" vertex="1">
          <mxGeometry x="70" y="60" width="860" height="470" as="geometry" />
        </mxCell>
        <mxCell id="2b4e8129b02d487f-2" value="流量主（Gemgala）" style="swimlane;html=1;startSize=20;horizontal=0;" parent="2b4e8129b02d487f-1" vertex="1">
          <mxGeometry y="20" width="860" height="150" as="geometry" />
        </mxCell>
        <mxCell id="2b4e8129b02d487f-18" style="edgeStyle=orthogonalEdgeStyle;rounded=0;html=1;labelBackgroundColor=none;startArrow=none;startFill=0;startSize=5;endArrow=classicThin;endFill=1;endSize=5;jettySize=auto;orthogonalLoop=1;strokeWidth=1;fontFamily=Verdana;fontSize=8" parent="2b4e8129b02d487f-2" source="2b4e8129b02d487f-5" target="2b4e8129b02d487f-6" edge="1">
          <mxGeometry relative="1" as="geometry" />
        </mxCell>
        <mxCell id="2b4e8129b02d487f-5" value="" style="ellipse;whiteSpace=wrap;html=1;rounded=0;shadow=0;labelBackgroundColor=none;strokeWidth=1;fontFamily=Verdana;fontSize=8;align=center;" parent="2b4e8129b02d487f-2" vertex="1">
          <mxGeometry x="60" y="60" width="30" height="30" as="geometry" />
        </mxCell>
        <mxCell id="2b4e8129b02d487f-6" value="&lt;font style=&quot;font-size: 11px;&quot;&gt;打开APP&lt;/font&gt;" style="rounded=1;whiteSpace=wrap;html=1;shadow=0;labelBackgroundColor=none;strokeWidth=1;fontFamily=Verdana;fontSize=8;align=center;" parent="2b4e8129b02d487f-2" vertex="1">
          <mxGeometry x="120" y="56.5" width="100" height="37" as="geometry" />
        </mxCell>
        <mxCell id="_rvxxKRfaDbZ1rV0Di5T-24" style="edgeStyle=orthogonalEdgeStyle;rounded=0;orthogonalLoop=1;jettySize=auto;html=1;exitX=1;exitY=0.5;exitDx=0;exitDy=0;fontSize=8;" parent="2b4e8129b02d487f-2" source="2b4e8129b02d487f-9" target="_rvxxKRfaDbZ1rV0Di5T-23" edge="1">
          <mxGeometry relative="1" as="geometry" />
        </mxCell>
        <mxCell id="2b4e8129b02d487f-9" value="通知用户" style="rounded=1;whiteSpace=wrap;html=1;shadow=0;labelBackgroundColor=none;strokeWidth=1;fontFamily=Verdana;fontSize=8;align=center;" parent="2b4e8129b02d487f-2" vertex="1">
          <mxGeometry x="445" y="52.99999999999997" width="70" height="37" as="geometry" />
        </mxCell>
        <mxCell id="_rvxxKRfaDbZ1rV0Di5T-17" value="" style="ellipse;whiteSpace=wrap;html=1;rounded=0;shadow=0;labelBackgroundColor=none;strokeWidth=2;fontFamily=Verdana;fontSize=8;align=center;fillColor=#000000;" parent="2b4e8129b02d487f-2" vertex="1">
          <mxGeometry x="299" y="20" width="30" height="30" as="geometry" />
        </mxCell>
        <mxCell id="_rvxxKRfaDbZ1rV0Di5T-19" style="edgeStyle=orthogonalEdgeStyle;rounded=0;orthogonalLoop=1;jettySize=auto;html=1;entryX=0.503;entryY=1.073;entryDx=0;entryDy=0;entryPerimeter=0;fontSize=8;" parent="2b4e8129b02d487f-2" source="_rvxxKRfaDbZ1rV0Di5T-18" target="_rvxxKRfaDbZ1rV0Di5T-17" edge="1">
          <mxGeometry relative="1" as="geometry" />
        </mxCell>
        <mxCell id="_rvxxKRfaDbZ1rV0Di5T-18" value="不处理数据" style="rounded=1;whiteSpace=wrap;html=1;shadow=0;labelBackgroundColor=none;strokeWidth=1;fontFamily=Verdana;fontSize=8;align=center;" parent="2b4e8129b02d487f-2" vertex="1">
          <mxGeometry x="279" y="79.99999999999997" width="70" height="37" as="geometry" />
        </mxCell>
        <mxCell id="_rvxxKRfaDbZ1rV0Di5T-23" value="用户从弹框点进去" style="rounded=1;whiteSpace=wrap;html=1;shadow=0;labelBackgroundColor=none;strokeWidth=1;fontFamily=Verdana;fontSize=8;align=center;" parent="2b4e8129b02d487f-2" vertex="1">
          <mxGeometry x="610" y="53" width="70" height="37" as="geometry" />
        </mxCell>
        <mxCell id="_rvxxKRfaDbZ1rV0Di5T-25" value="IM消息" style="text;html=1;align=center;verticalAlign=middle;resizable=0;points=[];autosize=1;strokeColor=none;fillColor=none;fontSize=8;" parent="2b4e8129b02d487f-2" vertex="1">
          <mxGeometry x="530" y="46.5" width="60" height="30" as="geometry" />
        </mxCell>
        <mxCell id="9M2x1RLsv_Iyux-qlZZT-4" value="" style="ellipse;whiteSpace=wrap;html=1;rounded=0;shadow=0;labelBackgroundColor=none;strokeWidth=2;fontFamily=Verdana;fontSize=8;align=center;fillColor=#000000;" vertex="1" parent="2b4e8129b02d487f-2">
          <mxGeometry x="790" y="80" width="30" height="30" as="geometry" />
        </mxCell>
        <mxCell id="2b4e8129b02d487f-3" value="SDK" style="swimlane;html=1;startSize=20;horizontal=0;" parent="2b4e8129b02d487f-1" vertex="1">
          <mxGeometry y="170" width="860" height="150" as="geometry" />
        </mxCell>
        <mxCell id="2b4e8129b02d487f-12" value="组装广告信息、查询任务状态" style="rounded=1;whiteSpace=wrap;html=1;shadow=0;labelBackgroundColor=none;strokeWidth=1;fontFamily=Verdana;fontSize=8;align=center;" parent="2b4e8129b02d487f-3" vertex="1">
          <mxGeometry x="120" y="56.5" width="100" height="37" as="geometry" />
        </mxCell>
        <mxCell id="_rvxxKRfaDbZ1rV0Di5T-11" value="判断用户&lt;br&gt;任务状态" style="strokeWidth=1;html=1;shape=mxgraph.flowchart.decision;whiteSpace=wrap;rounded=1;shadow=0;labelBackgroundColor=none;fontFamily=Verdana;fontSize=8;align=center;" parent="2b4e8129b02d487f-3" vertex="1">
          <mxGeometry x="264" y="45.25" width="100" height="59.5" as="geometry" />
        </mxCell>
        <mxCell id="_rvxxKRfaDbZ1rV0Di5T-10" value="未完成" style="text;html=1;align=center;verticalAlign=middle;resizable=0;points=[];autosize=1;strokeColor=none;fillColor=none;fontSize=8;" parent="2b4e8129b02d487f-3" vertex="1">
          <mxGeometry x="290" y="10" width="60" height="30" as="geometry" />
        </mxCell>
        <mxCell id="_rvxxKRfaDbZ1rV0Di5T-21" value="已完成" style="text;html=1;align=center;verticalAlign=middle;resizable=0;points=[];autosize=1;strokeColor=none;fillColor=none;fontSize=8;" parent="2b4e8129b02d487f-3" vertex="1">
          <mxGeometry x="350" y="50" width="60" height="30" as="geometry" />
        </mxCell>
        <mxCell id="_rvxxKRfaDbZ1rV0Di5T-26" value="结算" style="rounded=1;whiteSpace=wrap;html=1;shadow=0;labelBackgroundColor=none;strokeWidth=1;fontFamily=Verdana;fontSize=8;align=center;" parent="2b4e8129b02d487f-3" vertex="1">
          <mxGeometry x="445" y="56.5" width="70" height="37" as="geometry" />
        </mxCell>
        <mxCell id="_rvxxKRfaDbZ1rV0Di5T-20" style="edgeStyle=orthogonalEdgeStyle;rounded=0;orthogonalLoop=1;jettySize=auto;html=1;exitX=1;exitY=0.5;exitDx=0;exitDy=0;exitPerimeter=0;entryX=0;entryY=0.5;entryDx=0;entryDy=0;fontSize=8;" parent="2b4e8129b02d487f-3" source="_rvxxKRfaDbZ1rV0Di5T-11" target="_rvxxKRfaDbZ1rV0Di5T-26" edge="1">
          <mxGeometry relative="1" as="geometry" />
        </mxCell>
        <mxCell id="9M2x1RLsv_Iyux-qlZZT-1" value="变更任务&lt;br&gt;状态" style="rounded=1;whiteSpace=wrap;html=1;shadow=0;labelBackgroundColor=none;strokeWidth=1;fontFamily=Verdana;fontSize=8;align=center;" vertex="1" parent="2b4e8129b02d487f-3">
          <mxGeometry x="610" y="56.5" width="70" height="37" as="geometry" />
        </mxCell>
        <mxCell id="2b4e8129b02d487f-24" style="edgeStyle=orthogonalEdgeStyle;rounded=0;html=1;labelBackgroundColor=none;startArrow=none;startFill=0;startSize=5;endArrow=classicThin;endFill=1;endSize=5;jettySize=auto;orthogonalLoop=1;strokeWidth=1;fontFamily=Verdana;fontSize=8" parent="2b4e8129b02d487f-1" source="2b4e8129b02d487f-6" target="2b4e8129b02d487f-12" edge="1">
          <mxGeometry relative="1" as="geometry">
            <Array as="points">
              <mxPoint x="170" y="190" />
              <mxPoint x="170" y="190" />
            </Array>
          </mxGeometry>
        </mxCell>
        <mxCell id="_rvxxKRfaDbZ1rV0Di5T-3" value="HTTP：&lt;font color=&quot;#ff3333&quot;&gt;自动查询&lt;/font&gt;广告状态" style="edgeLabel;html=1;align=center;verticalAlign=middle;resizable=0;points=[];fontSize=8;" parent="2b4e8129b02d487f-24" vertex="1" connectable="0">
          <mxGeometry x="-0.2857" relative="1" as="geometry">
            <mxPoint as="offset" />
          </mxGeometry>
        </mxCell>
        <mxCell id="_rvxxKRfaDbZ1rV0Di5T-9" style="edgeStyle=orthogonalEdgeStyle;rounded=0;orthogonalLoop=1;jettySize=auto;html=1;exitX=0.5;exitY=0;exitDx=0;exitDy=0;exitPerimeter=0;fontSize=8;" parent="2b4e8129b02d487f-1" source="_rvxxKRfaDbZ1rV0Di5T-11" target="_rvxxKRfaDbZ1rV0Di5T-18" edge="1">
          <mxGeometry relative="1" as="geometry">
            <mxPoint x="220" y="410.2500000000001" as="sourcePoint" />
            <mxPoint x="314" y="140" as="targetPoint" />
          </mxGeometry>
        </mxCell>
        <mxCell id="_rvxxKRfaDbZ1rV0Di5T-14" style="edgeStyle=orthogonalEdgeStyle;rounded=0;orthogonalLoop=1;jettySize=auto;html=1;fontSize=8;" parent="2b4e8129b02d487f-1" source="2b4e8129b02d487f-12" target="_rvxxKRfaDbZ1rV0Di5T-4" edge="1">
          <mxGeometry relative="1" as="geometry" />
        </mxCell>
        <mxCell id="_rvxxKRfaDbZ1rV0Di5T-15" value="HTTP：调用广告主状态查询接口" style="edgeLabel;html=1;align=center;verticalAlign=middle;resizable=0;points=[];fontSize=8;" parent="_rvxxKRfaDbZ1rV0Di5T-14" vertex="1" connectable="0">
          <mxGeometry x="-0.1595" relative="1" as="geometry">
            <mxPoint as="offset" />
          </mxGeometry>
        </mxCell>
        <mxCell id="2b4e8129b02d487f-4" value="广告主（Chamet）" style="swimlane;html=1;startSize=20;horizontal=0;" parent="2b4e8129b02d487f-1" vertex="1">
          <mxGeometry y="320" width="860" height="150" as="geometry" />
        </mxCell>
        <mxCell id="_rvxxKRfaDbZ1rV0Di5T-4" value="查询用户状态&lt;br&gt;并返回" style="rounded=1;whiteSpace=wrap;html=1;shadow=0;labelBackgroundColor=none;strokeWidth=1;fontFamily=Verdana;fontSize=8;align=center;" parent="2b4e8129b02d487f-4" vertex="1">
          <mxGeometry x="120" y="45" width="100" height="37" as="geometry" />
        </mxCell>
        <mxCell id="_rvxxKRfaDbZ1rV0Di5T-16" style="edgeStyle=orthogonalEdgeStyle;rounded=0;orthogonalLoop=1;jettySize=auto;html=1;entryX=0.5;entryY=1;entryDx=0;entryDy=0;entryPerimeter=0;fontSize=8;" parent="2b4e8129b02d487f-1" source="_rvxxKRfaDbZ1rV0Di5T-4" target="_rvxxKRfaDbZ1rV0Di5T-11" edge="1">
          <mxGeometry relative="1" as="geometry" />
        </mxCell>
        <mxCell id="_rvxxKRfaDbZ1rV0Di5T-27" style="edgeStyle=orthogonalEdgeStyle;rounded=0;orthogonalLoop=1;jettySize=auto;html=1;exitX=0.5;exitY=0;exitDx=0;exitDy=0;fontSize=8;" parent="2b4e8129b02d487f-1" source="_rvxxKRfaDbZ1rV0Di5T-26" target="2b4e8129b02d487f-9" edge="1">
          <mxGeometry relative="1" as="geometry" />
        </mxCell>
        <mxCell id="9M2x1RLsv_Iyux-qlZZT-2" style="edgeStyle=orthogonalEdgeStyle;rounded=0;orthogonalLoop=1;jettySize=auto;html=1;exitX=0.5;exitY=1;exitDx=0;exitDy=0;fontSize=8;" edge="1" parent="2b4e8129b02d487f-1" source="_rvxxKRfaDbZ1rV0Di5T-23" target="9M2x1RLsv_Iyux-qlZZT-1">
          <mxGeometry relative="1" as="geometry" />
        </mxCell>
        <mxCell id="9M2x1RLsv_Iyux-qlZZT-3" value="HTTP：&lt;font color=&quot;#ff3333&quot;&gt;自动调用&lt;/font&gt;领取奖励接口" style="edgeLabel;html=1;align=center;verticalAlign=middle;resizable=0;points=[];fontSize=8;" vertex="1" connectable="0" parent="9M2x1RLsv_Iyux-qlZZT-2">
          <mxGeometry x="-0.1931" y="-1" relative="1" as="geometry">
            <mxPoint as="offset" />
          </mxGeometry>
        </mxCell>
        <mxCell id="9M2x1RLsv_Iyux-qlZZT-5" style="edgeStyle=orthogonalEdgeStyle;rounded=0;orthogonalLoop=1;jettySize=auto;html=1;exitX=1;exitY=0.5;exitDx=0;exitDy=0;fontSize=8;fontColor=#FF3333;" edge="1" parent="2b4e8129b02d487f-1" source="9M2x1RLsv_Iyux-qlZZT-1" target="9M2x1RLsv_Iyux-qlZZT-4">
          <mxGeometry relative="1" as="geometry" />
        </mxCell>
      </root>
    </mxGraphModel>
  </diagram>
</mxfile>
